<svg xmlns="http://www.w3.org/2000/svg" viewBox="0 0 1024 1024"><path d="M528.64 875.093L741.973 610.56a21.2 21.2 0 0 0 4.585-13.214c0-6.718-3.105-12.71-7.958-16.62l-.041-.032a21.62 21.62 0 0 0-13.212-4.693H575.999V149.334c0-11.782-9.551-21.333-21.333-21.333h-85.333c-11.782 0-21.333 9.551-21.333 21.333v426.667H298.667c-11.782 0-21.333 9.551-21.333 21.333a21.676 21.676 0 0 0 4.727 13.271l-.034-.044L495.36 875.094c3.942 4.894 9.935 7.999 16.652 7.999 5.011 0 9.618-1.727 13.258-4.619l-.044.034z"/></svg>