<!-- Generated by IcoMoon.io -->
<svg version="1.1" xmlns="http://www.w3.org/2000/svg" width="1024" height="1024" viewBox="0 0 1024 1024">
<title></title>
<g id="icomoon-ignore">
</g>
<path fill="#000" d="M528.64 875.093l213.333-264.533c2.858-3.597 4.585-8.204 4.585-13.214 0-6.718-3.105-12.71-7.958-16.62l-0.041-0.032c-3.603-2.87-8.203-4.628-13.212-4.693h-149.348v-426.667c0-11.782-9.551-21.333-21.333-21.333v0h-85.333c-11.782 0-21.333 9.551-21.333 21.333v0 426.667h-149.333c-11.782 0-21.333 9.551-21.333 21.333v0c0.065 5.023 1.823 9.624 4.727 13.271l-0.034-0.044 213.333 264.533c3.942 4.894 9.935 7.999 16.652 7.999 5.011 0 9.618-1.727 13.258-4.619l-0.044 0.034z"></path>
</svg>
